<svg width="24" height="13" viewBox="0 0 24 13" fill="none" xmlns="http://www.w3.org/2000/svg">
<path d="M5.43891 3.54016C6.11091 3.54016 6.70824 3.68416 7.23091 3.97216C7.76424 4.26016 8.18024 4.68682 8.47891 5.25216C8.78824 5.81749 8.94291 6.50016 8.94291 7.30016V12.5002H7.13491V7.57216C7.13491 6.78282 6.93757 6.18016 6.54291 5.76416C6.14824 5.33749 5.60957 5.12416 4.92691 5.12416C4.24424 5.12416 3.70024 5.33749 3.29491 5.76416C2.90024 6.18016 2.70291 6.78282 2.70291 7.57216V12.5002H0.878906V0.660156H2.70291V4.70816C3.01224 4.33482 3.40157 4.04682 3.87091 3.84416C4.35091 3.64149 4.87357 3.54016 5.43891 3.54016Z" fill="#43403B"/>
<path d="M15.8295 3.54016C16.5015 3.54016 17.0989 3.68416 17.6215 3.97216C18.1549 4.26016 18.5709 4.68682 18.8695 5.25216C19.1789 5.81749 19.3335 6.50016 19.3335 7.30016V12.5002H17.5255V7.57216C17.5255 6.78282 17.3282 6.18016 16.9335 5.76416C16.5389 5.33749 16.0002 5.12416 15.3175 5.12416C14.6349 5.12416 14.0909 5.33749 13.6855 5.76416C13.2909 6.18016 13.0935 6.78282 13.0935 7.57216V12.5002H11.2695V0.660156H13.0935V4.70816C13.4029 4.33482 13.7922 4.04682 14.2615 3.84416C14.7415 3.64149 15.2642 3.54016 15.8295 3.54016Z" fill="#43403B"/>
<path d="M22.3962 12.6122C22.0655 12.6122 21.7882 12.5002 21.5642 12.2762C21.3402 12.0522 21.2282 11.7748 21.2282 11.4442C21.2282 11.1135 21.3402 10.8362 21.5642 10.6122C21.7882 10.3882 22.0655 10.2762 22.3962 10.2762C22.7162 10.2762 22.9882 10.3882 23.2122 10.6122C23.4362 10.8362 23.5482 11.1135 23.5482 11.4442C23.5482 11.7748 23.4362 12.0522 23.2122 12.2762C22.9882 12.5002 22.7162 12.6122 22.3962 12.6122Z" fill="#12B379"/>
</svg>
